<svg fill="#ffffff" width="64px" height="64px" viewBox="-1.6 -1.6 19.20 19.20" xmlns="http://www.w3.org/2000/svg" stroke="#ffffff" stroke-width="0.00016" transform="matrix(1, 0, 0, 1, 0, 0)"><g id="SVGRepo_bgCarrier" stroke-width="0"></g><g id="SVGRepo_tracerCarrier" stroke-linecap="round" stroke-linejoin="round"></g><g id="SVGRepo_iconCarrier"> <path d="M0 0h4v4H0V0zm0 6h4v4H0V6zm0 6h4v4H0v-4zM6 0h4v4H6V0zm0 6h4v4H6V6zm0 6h4v4H6v-4zm6-12h4v4h-4V0zm0 6h4v4h-4V6zm0 6h4v4h-4v-4z" fill-rule="evenodd"></path> </g></svg>