<?xml version="1.0" ?>

<!-- Uploaded to: SVG Repo, www.svgrepo.com, Generator: SVG Repo Mixer Tools -->
<svg width="800px" height="800px" viewBox="0 0 91 91" id="Layer_1" version="1.1" xml:space="preserve" xmlns="http://www.w3.org/2000/svg" xmlns:xlink="http://www.w3.org/1999/xlink">

<style type="text/css">
	.st0{fill:white;}
</style>

<g>

<path class="st0" d="M53.3,3.9c1.9-0.2,2-2.8,0-3C30-1.4,4.7,23.9,11.9,47.5C17.6,65.8,37.4,71.8,55.1,69   c-5.9,3.8-11.6,7.8-16.6,12.7c-4.5,4.4,2.4,11.3,6.9,6.9c9.5-9.4,20.1-17,31.2-24.3c2.7-1.7,2.2-5.7-0.9-6.7   C63,53.6,53,46.6,41.8,39.6c-2.8-1.7-5.3,2.1-3.4,4.4c5.3,6.2,12.3,10.9,19.8,14.6c-12.7,3.2-29.8,1.9-36.4-9.9   C11.1,29.2,34.5,6.1,53.3,3.9z"/>

</g>

</svg>